<svg width="512" height="512" viewBox="0 0 512 512" fill="none" xmlns="http://www.w3.org/2000/svg">
<path d="M256 512C114.836 512 0 397.164 0 256C0 114.836 114.836 0 256 0C397.164 0 512 114.836 512 256C512 397.164 397.164 512 256 512ZM256 32C132.48 32 32 132.48 32 256C32 379.52 132.48 480 256 480C379.52 480 480 379.52 480 256C480 132.48 379.52 32 256 32Z" fill="#56AB3E"/>
<path d="M232 341.332C227.902 341.332 223.809 339.777 220.691 336.641L151.359 267.309C145.109 261.055 145.109 250.922 151.359 244.672C157.609 238.422 167.742 238.422 173.996 244.672L232.02 302.699L359.383 175.34C365.633 169.09 375.766 169.09 382.016 175.34C388.266 181.59 388.266 191.723 382.016 197.973L243.348 336.641C240.191 339.777 236.098 341.332 232 341.332Z" fill="#56AB3E"/>
</svg>
