<svg width="512" height="512" viewBox="0 0 512 512" fill="none" xmlns="http://www.w3.org/2000/svg">
<path d="M256 512C114.836 512 0 397.164 0 256C0 114.836 114.836 0 256 0C397.164 0 512 114.836 512 256C512 397.164 397.164 512 256 512ZM256 32C132.48 32 32 132.48 32 256C32 379.52 132.48 480 256 480C379.52 480 480 379.52 480 256C480 132.48 379.52 32 256 32Z" fill="#AB3E3E"/>
<path d="M176.812 351.188C172.715 351.188 168.617 349.633 165.504 346.496C159.254 340.246 159.254 330.113 165.504 323.863L323.902 165.461C330.156 159.211 340.289 159.211 346.539 165.461C352.789 171.711 352.789 181.844 346.539 188.098L188.137 346.496C184.98 349.633 180.887 351.188 176.812 351.188Z" fill="#AB3E3E"/>
<path d="M335.188 351.188C331.094 351.188 326.996 349.633 323.883 346.496L165.484 188.117C159.23 181.867 159.23 171.734 165.484 165.484C171.734 159.23 181.867 159.23 188.117 165.484L346.516 323.883C352.77 330.133 352.77 340.266 346.516 346.516C343.383 349.633 339.285 351.188 335.188 351.188Z" fill="#AB3E3E"/>
</svg>
